<mxfile host="Electron" modified="2024-04-11T11:41:55.440Z" agent="Mozilla/5.0 (Windows NT 10.0; Win64; x64) AppleWebKit/537.36 (KHTML, like Gecko) draw.io/23.1.5 Chrome/120.0.6099.109 Electron/28.1.0 Safari/537.36" etag="88_n6DFuhUJzea3kNpCU" version="23.1.5" type="device">
  <diagram name="Page-1" id="nWtx2XoTzo1OdSNkWP2I">
    <mxGraphModel dx="1434" dy="2013" grid="1" gridSize="10" guides="1" tooltips="1" connect="1" arrows="1" fold="1" page="1" pageScale="1" pageWidth="827" pageHeight="1169" math="0" shadow="0">
      <root>
        <mxCell id="0" />
        <mxCell id="1" parent="0" />
        <mxCell id="mgm_qc_4t_GrlnQClly7-2" value="" style="shape=actor;whiteSpace=wrap;html=1;" parent="1" vertex="1">
          <mxGeometry x="740" y="20" width="40" height="60" as="geometry" />
        </mxCell>
        <mxCell id="mgm_qc_4t_GrlnQClly7-3" value="" style="shape=actor;whiteSpace=wrap;html=1;" parent="1" vertex="1">
          <mxGeometry x="740" y="600" width="40" height="60" as="geometry" />
        </mxCell>
        <mxCell id="mgm_qc_4t_GrlnQClly7-4" value="" style="whiteSpace=wrap;html=1;aspect=fixed;" parent="1" vertex="1">
          <mxGeometry x="80" y="20" width="650" height="650" as="geometry" />
        </mxCell>
        <mxCell id="mgm_qc_4t_GrlnQClly7-6" value="Joueurs" style="text;html=1;strokeColor=none;fillColor=none;align=center;verticalAlign=middle;whiteSpace=wrap;rounded=0;" parent="1" vertex="1">
          <mxGeometry x="730" y="80" width="60" height="30" as="geometry" />
        </mxCell>
        <mxCell id="mgm_qc_4t_GrlnQClly7-7" value="MJ" style="text;html=1;strokeColor=none;fillColor=none;align=center;verticalAlign=middle;whiteSpace=wrap;rounded=0;" parent="1" vertex="1">
          <mxGeometry x="730" y="660" width="60" height="30" as="geometry" />
        </mxCell>
        <mxCell id="mgm_qc_4t_GrlnQClly7-8" value="" style="rounded=0;whiteSpace=wrap;html=1;" parent="1" vertex="1">
          <mxGeometry x="610" y="20" width="120" height="60" as="geometry" />
        </mxCell>
        <mxCell id="mgm_qc_4t_GrlnQClly7-9" value="Se connecte" style="text;html=1;strokeColor=none;fillColor=none;align=center;verticalAlign=middle;whiteSpace=wrap;rounded=0;" parent="1" vertex="1">
          <mxGeometry x="640" y="30" width="60" height="30" as="geometry" />
        </mxCell>
        <mxCell id="mgm_qc_4t_GrlnQClly7-11" value="" style="rounded=0;whiteSpace=wrap;html=1;" parent="1" vertex="1">
          <mxGeometry x="610" y="610" width="120" height="60" as="geometry" />
        </mxCell>
        <mxCell id="mgm_qc_4t_GrlnQClly7-12" value="Se connecte" style="text;html=1;strokeColor=none;fillColor=none;align=center;verticalAlign=middle;whiteSpace=wrap;rounded=0;" parent="1" vertex="1">
          <mxGeometry x="640" y="620" width="60" height="30" as="geometry" />
        </mxCell>
        <mxCell id="mgm_qc_4t_GrlnQClly7-15" value="Recherche de Profils joueurs" style="rounded=0;whiteSpace=wrap;html=1;" parent="1" vertex="1">
          <mxGeometry x="380" y="590" width="120" height="60" as="geometry" />
        </mxCell>
        <mxCell id="mgm_qc_4t_GrlnQClly7-16" value="Création de table" style="rounded=0;whiteSpace=wrap;html=1;" parent="1" vertex="1">
          <mxGeometry x="590" y="500" width="120" height="60" as="geometry" />
        </mxCell>
        <mxCell id="mgm_qc_4t_GrlnQClly7-17" value="Messagerie/chat" style="rounded=0;whiteSpace=wrap;html=1;" parent="1" vertex="1">
          <mxGeometry x="440" y="300" width="120" height="60" as="geometry" />
        </mxCell>
        <mxCell id="mgm_qc_4t_GrlnQClly7-18" value="Création de groupe d&#39;aventuriers" style="rounded=0;whiteSpace=wrap;html=1;" parent="1" vertex="1">
          <mxGeometry x="570" y="160" width="120" height="60" as="geometry" />
        </mxCell>
        <mxCell id="mgm_qc_4t_GrlnQClly7-19" value="" style="endArrow=none;html=1;rounded=0;entryX=-0.018;entryY=0.966;entryDx=0;entryDy=0;entryPerimeter=0;exitX=1;exitY=0.5;exitDx=0;exitDy=0;" parent="1" source="mgm_qc_4t_GrlnQClly7-9" target="mgm_qc_4t_GrlnQClly7-2" edge="1">
          <mxGeometry width="50" height="50" relative="1" as="geometry">
            <mxPoint x="420" y="310" as="sourcePoint" />
            <mxPoint x="470" y="260" as="targetPoint" />
          </mxGeometry>
        </mxCell>
        <mxCell id="mgm_qc_4t_GrlnQClly7-20" value="" style="endArrow=none;html=1;rounded=0;exitX=1;exitY=0.75;exitDx=0;exitDy=0;" parent="1" source="mgm_qc_4t_GrlnQClly7-12" target="mgm_qc_4t_GrlnQClly7-3" edge="1">
          <mxGeometry width="50" height="50" relative="1" as="geometry">
            <mxPoint x="540" y="460" as="sourcePoint" />
            <mxPoint x="590" y="410" as="targetPoint" />
          </mxGeometry>
        </mxCell>
        <mxCell id="mgm_qc_4t_GrlnQClly7-21" value="" style="endArrow=none;dashed=1;html=1;dashPattern=1 3;strokeWidth=2;rounded=0;exitX=1;exitY=0;exitDx=0;exitDy=0;" parent="1" source="mgm_qc_4t_GrlnQClly7-18" target="mgm_qc_4t_GrlnQClly7-8" edge="1">
          <mxGeometry width="50" height="50" relative="1" as="geometry">
            <mxPoint x="410" y="340" as="sourcePoint" />
            <mxPoint x="460" y="290" as="targetPoint" />
          </mxGeometry>
        </mxCell>
        <mxCell id="mgm_qc_4t_GrlnQClly7-22" value="" style="endArrow=none;dashed=1;html=1;dashPattern=1 3;strokeWidth=2;rounded=0;exitX=0;exitY=0;exitDx=0;exitDy=0;" parent="1" source="mgm_qc_4t_GrlnQClly7-11" target="mgm_qc_4t_GrlnQClly7-16" edge="1">
          <mxGeometry width="50" height="50" relative="1" as="geometry">
            <mxPoint x="410" y="360" as="sourcePoint" />
            <mxPoint x="460" y="310" as="targetPoint" />
          </mxGeometry>
        </mxCell>
        <mxCell id="mgm_qc_4t_GrlnQClly7-23" value="" style="endArrow=none;dashed=1;html=1;rounded=0;entryX=0;entryY=0.5;entryDx=0;entryDy=0;" parent="1" source="mgm_qc_4t_GrlnQClly7-17" target="mgm_qc_4t_GrlnQClly7-11" edge="1">
          <mxGeometry width="50" height="50" relative="1" as="geometry">
            <mxPoint x="370" y="430" as="sourcePoint" />
            <mxPoint x="420" y="380" as="targetPoint" />
          </mxGeometry>
        </mxCell>
        <mxCell id="mgm_qc_4t_GrlnQClly7-24" value="Recherche de Profils MJ" style="rounded=0;whiteSpace=wrap;html=1;" parent="1" vertex="1">
          <mxGeometry x="400" y="40" width="120" height="60" as="geometry" />
        </mxCell>
        <mxCell id="mgm_qc_4t_GrlnQClly7-25" value="" style="endArrow=none;dashed=1;html=1;rounded=0;entryX=0;entryY=0.5;entryDx=0;entryDy=0;exitX=1;exitY=0.5;exitDx=0;exitDy=0;" parent="1" source="mgm_qc_4t_GrlnQClly7-24" target="mgm_qc_4t_GrlnQClly7-8" edge="1">
          <mxGeometry width="50" height="50" relative="1" as="geometry">
            <mxPoint x="380" y="370" as="sourcePoint" />
            <mxPoint x="430" y="320" as="targetPoint" />
          </mxGeometry>
        </mxCell>
        <mxCell id="mgm_qc_4t_GrlnQClly7-26" value="" style="endArrow=none;dashed=1;html=1;rounded=0;entryX=0;entryY=0.75;entryDx=0;entryDy=0;exitX=0.5;exitY=0;exitDx=0;exitDy=0;" parent="1" source="mgm_qc_4t_GrlnQClly7-17" target="mgm_qc_4t_GrlnQClly7-8" edge="1">
          <mxGeometry width="50" height="50" relative="1" as="geometry">
            <mxPoint x="410" y="340" as="sourcePoint" />
            <mxPoint x="460" y="290" as="targetPoint" />
          </mxGeometry>
        </mxCell>
        <mxCell id="mgm_qc_4t_GrlnQClly7-28" value="Organisation Date-lieu" style="rounded=0;whiteSpace=wrap;html=1;" parent="1" vertex="1">
          <mxGeometry x="294" y="300" width="120" height="60" as="geometry" />
        </mxCell>
        <mxCell id="mgm_qc_4t_GrlnQClly7-29" value="" style="endArrow=none;dashed=1;html=1;rounded=0;exitX=1;exitY=0;exitDx=0;exitDy=0;" parent="1" source="mgm_qc_4t_GrlnQClly7-28" target="mgm_qc_4t_GrlnQClly7-18" edge="1">
          <mxGeometry width="50" height="50" relative="1" as="geometry">
            <mxPoint x="410" y="340" as="sourcePoint" />
            <mxPoint x="460" y="290" as="targetPoint" />
          </mxGeometry>
        </mxCell>
        <mxCell id="mgm_qc_4t_GrlnQClly7-30" value="" style="endArrow=none;dashed=1;html=1;rounded=0;entryX=0;entryY=0.25;entryDx=0;entryDy=0;exitX=1;exitY=1;exitDx=0;exitDy=0;" parent="1" source="mgm_qc_4t_GrlnQClly7-28" target="mgm_qc_4t_GrlnQClly7-16" edge="1">
          <mxGeometry width="50" height="50" relative="1" as="geometry">
            <mxPoint x="410" y="340" as="sourcePoint" />
            <mxPoint x="460" y="290" as="targetPoint" />
          </mxGeometry>
        </mxCell>
        <mxCell id="mgm_qc_4t_GrlnQClly7-31" value="Recherche lieu public permettant le jeu" style="rounded=0;whiteSpace=wrap;html=1;" parent="1" vertex="1">
          <mxGeometry x="150" y="300" width="120" height="60" as="geometry" />
        </mxCell>
        <mxCell id="mgm_qc_4t_GrlnQClly7-32" value="" style="endArrow=none;dashed=1;html=1;rounded=0;exitX=1;exitY=0.5;exitDx=0;exitDy=0;entryX=0;entryY=0.5;entryDx=0;entryDy=0;" parent="1" source="mgm_qc_4t_GrlnQClly7-31" target="mgm_qc_4t_GrlnQClly7-28" edge="1">
          <mxGeometry width="50" height="50" relative="1" as="geometry">
            <mxPoint x="410" y="340" as="sourcePoint" />
            <mxPoint x="460" y="290" as="targetPoint" />
          </mxGeometry>
        </mxCell>
        <mxCell id="mgm_qc_4t_GrlnQClly7-34" value="" style="endArrow=none;dashed=1;html=1;rounded=0;entryX=0;entryY=0.5;entryDx=0;entryDy=0;exitX=1;exitY=0.5;exitDx=0;exitDy=0;" parent="1" source="mgm_qc_4t_GrlnQClly7-15" target="mgm_qc_4t_GrlnQClly7-11" edge="1">
          <mxGeometry width="50" height="50" relative="1" as="geometry">
            <mxPoint x="490" y="380" as="sourcePoint" />
            <mxPoint x="540" y="330" as="targetPoint" />
          </mxGeometry>
        </mxCell>
        <mxCell id="NspOQwVpDuBAVGisOvOU-1" value="Diagramme de classes" style="text;html=1;align=center;verticalAlign=middle;resizable=0;points=[];autosize=1;strokeColor=none;fillColor=none;fontSize=20;" vertex="1" parent="1">
          <mxGeometry y="710" width="230" height="40" as="geometry" />
        </mxCell>
        <mxCell id="NspOQwVpDuBAVGisOvOU-3" value="Utilisateur" style="swimlane;fontStyle=1;align=center;verticalAlign=top;childLayout=stackLayout;horizontal=1;startSize=26;horizontalStack=0;resizeParent=1;resizeParentMax=0;resizeLast=0;collapsible=1;marginBottom=0;whiteSpace=wrap;html=1;" vertex="1" parent="1">
          <mxGeometry x="40" y="760" width="160" height="242" as="geometry" />
        </mxCell>
        <mxCell id="NspOQwVpDuBAVGisOvOU-4" value="- id_user: int" style="text;strokeColor=none;fillColor=none;align=left;verticalAlign=top;spacingLeft=4;spacingRight=4;overflow=hidden;rotatable=0;points=[[0,0.5],[1,0.5]];portConstraint=eastwest;whiteSpace=wrap;html=1;" vertex="1" parent="NspOQwVpDuBAVGisOvOU-3">
          <mxGeometry y="26" width="160" height="26" as="geometry" />
        </mxCell>
        <mxCell id="NspOQwVpDuBAVGisOvOU-7" value="- nom : string" style="text;strokeColor=none;fillColor=none;align=left;verticalAlign=top;spacingLeft=4;spacingRight=4;overflow=hidden;rotatable=0;points=[[0,0.5],[1,0.5]];portConstraint=eastwest;whiteSpace=wrap;html=1;" vertex="1" parent="NspOQwVpDuBAVGisOvOU-3">
          <mxGeometry y="52" width="160" height="26" as="geometry" />
        </mxCell>
        <mxCell id="NspOQwVpDuBAVGisOvOU-9" value="- prenom : string" style="text;strokeColor=none;fillColor=none;align=left;verticalAlign=top;spacingLeft=4;spacingRight=4;overflow=hidden;rotatable=0;points=[[0,0.5],[1,0.5]];portConstraint=eastwest;whiteSpace=wrap;html=1;" vertex="1" parent="NspOQwVpDuBAVGisOvOU-3">
          <mxGeometry y="78" width="160" height="26" as="geometry" />
        </mxCell>
        <mxCell id="NspOQwVpDuBAVGisOvOU-10" value="- email : string" style="text;strokeColor=none;fillColor=none;align=left;verticalAlign=top;spacingLeft=4;spacingRight=4;overflow=hidden;rotatable=0;points=[[0,0.5],[1,0.5]];portConstraint=eastwest;whiteSpace=wrap;html=1;" vertex="1" parent="NspOQwVpDuBAVGisOvOU-3">
          <mxGeometry y="104" width="160" height="26" as="geometry" />
        </mxCell>
        <mxCell id="NspOQwVpDuBAVGisOvOU-11" value="- date_de_naissance : date" style="text;strokeColor=none;fillColor=none;align=left;verticalAlign=top;spacingLeft=4;spacingRight=4;overflow=hidden;rotatable=0;points=[[0,0.5],[1,0.5]];portConstraint=eastwest;whiteSpace=wrap;html=1;" vertex="1" parent="NspOQwVpDuBAVGisOvOU-3">
          <mxGeometry y="130" width="160" height="26" as="geometry" />
        </mxCell>
        <mxCell id="NspOQwVpDuBAVGisOvOU-12" value="- ville_de_residence : string" style="text;strokeColor=none;fillColor=none;align=left;verticalAlign=top;spacingLeft=4;spacingRight=4;overflow=hidden;rotatable=0;points=[[0,0.5],[1,0.5]];portConstraint=eastwest;whiteSpace=wrap;html=1;" vertex="1" parent="NspOQwVpDuBAVGisOvOU-3">
          <mxGeometry y="156" width="160" height="26" as="geometry" />
        </mxCell>
        <mxCell id="NspOQwVpDuBAVGisOvOU-8" value="- hash: string" style="text;strokeColor=none;fillColor=none;align=left;verticalAlign=top;spacingLeft=4;spacingRight=4;overflow=hidden;rotatable=0;points=[[0,0.5],[1,0.5]];portConstraint=eastwest;whiteSpace=wrap;html=1;" vertex="1" parent="NspOQwVpDuBAVGisOvOU-3">
          <mxGeometry y="182" width="160" height="26" as="geometry" />
        </mxCell>
        <mxCell id="NspOQwVpDuBAVGisOvOU-5" value="" style="line;strokeWidth=1;fillColor=none;align=left;verticalAlign=middle;spacingTop=-1;spacingLeft=3;spacingRight=3;rotatable=0;labelPosition=right;points=[];portConstraint=eastwest;strokeColor=inherit;" vertex="1" parent="NspOQwVpDuBAVGisOvOU-3">
          <mxGeometry y="208" width="160" height="8" as="geometry" />
        </mxCell>
        <mxCell id="NspOQwVpDuBAVGisOvOU-6" value="+ method(type): type" style="text;strokeColor=none;fillColor=none;align=left;verticalAlign=top;spacingLeft=4;spacingRight=4;overflow=hidden;rotatable=0;points=[[0,0.5],[1,0.5]];portConstraint=eastwest;whiteSpace=wrap;html=1;" vertex="1" parent="NspOQwVpDuBAVGisOvOU-3">
          <mxGeometry y="216" width="160" height="26" as="geometry" />
        </mxCell>
        <mxCell id="NspOQwVpDuBAVGisOvOU-14" value="table" style="swimlane;fontStyle=1;align=center;verticalAlign=top;childLayout=stackLayout;horizontal=1;startSize=26;horizontalStack=0;resizeParent=1;resizeParentMax=0;resizeLast=0;collapsible=1;marginBottom=0;whiteSpace=wrap;html=1;" vertex="1" parent="1">
          <mxGeometry x="250" y="760" width="160" height="164" as="geometry" />
        </mxCell>
        <mxCell id="NspOQwVpDuBAVGisOvOU-15" value="- id_table: int" style="text;strokeColor=none;fillColor=none;align=left;verticalAlign=top;spacingLeft=4;spacingRight=4;overflow=hidden;rotatable=0;points=[[0,0.5],[1,0.5]];portConstraint=eastwest;whiteSpace=wrap;html=1;" vertex="1" parent="NspOQwVpDuBAVGisOvOU-14">
          <mxGeometry y="26" width="160" height="26" as="geometry" />
        </mxCell>
        <mxCell id="NspOQwVpDuBAVGisOvOU-16" value="- nom : string" style="text;strokeColor=none;fillColor=none;align=left;verticalAlign=top;spacingLeft=4;spacingRight=4;overflow=hidden;rotatable=0;points=[[0,0.5],[1,0.5]];portConstraint=eastwest;whiteSpace=wrap;html=1;" vertex="1" parent="NspOQwVpDuBAVGisOvOU-14">
          <mxGeometry y="52" width="160" height="26" as="geometry" />
        </mxCell>
        <mxCell id="NspOQwVpDuBAVGisOvOU-17" value="- systeme : string" style="text;strokeColor=none;fillColor=none;align=left;verticalAlign=top;spacingLeft=4;spacingRight=4;overflow=hidden;rotatable=0;points=[[0,0.5],[1,0.5]];portConstraint=eastwest;whiteSpace=wrap;html=1;" vertex="1" parent="NspOQwVpDuBAVGisOvOU-14">
          <mxGeometry y="78" width="160" height="26" as="geometry" />
        </mxCell>
        <mxCell id="NspOQwVpDuBAVGisOvOU-18" value="- img_profil : string" style="text;strokeColor=none;fillColor=none;align=left;verticalAlign=top;spacingLeft=4;spacingRight=4;overflow=hidden;rotatable=0;points=[[0,0.5],[1,0.5]];portConstraint=eastwest;whiteSpace=wrap;html=1;" vertex="1" parent="NspOQwVpDuBAVGisOvOU-14">
          <mxGeometry y="104" width="160" height="26" as="geometry" />
        </mxCell>
        <mxCell id="NspOQwVpDuBAVGisOvOU-22" value="" style="line;strokeWidth=1;fillColor=none;align=left;verticalAlign=middle;spacingTop=-1;spacingLeft=3;spacingRight=3;rotatable=0;labelPosition=right;points=[];portConstraint=eastwest;strokeColor=inherit;" vertex="1" parent="NspOQwVpDuBAVGisOvOU-14">
          <mxGeometry y="130" width="160" height="8" as="geometry" />
        </mxCell>
        <mxCell id="NspOQwVpDuBAVGisOvOU-23" value="+ method(type): type" style="text;strokeColor=none;fillColor=none;align=left;verticalAlign=top;spacingLeft=4;spacingRight=4;overflow=hidden;rotatable=0;points=[[0,0.5],[1,0.5]];portConstraint=eastwest;whiteSpace=wrap;html=1;" vertex="1" parent="NspOQwVpDuBAVGisOvOU-14">
          <mxGeometry y="138" width="160" height="26" as="geometry" />
        </mxCell>
        <mxCell id="NspOQwVpDuBAVGisOvOU-26" value="" style="whiteSpace=wrap;html=1;aspect=fixed;" vertex="1" parent="1">
          <mxGeometry x="1035" y="150" width="730" height="730" as="geometry" />
        </mxCell>
        <mxCell id="NspOQwVpDuBAVGisOvOU-31" value="Se connecte" style="rounded=0;whiteSpace=wrap;html=1;" vertex="1" parent="1">
          <mxGeometry x="1610" y="710" width="120" height="60" as="geometry" />
        </mxCell>
        <mxCell id="NspOQwVpDuBAVGisOvOU-33" value="Recherche de Profils joueurs" style="rounded=0;whiteSpace=wrap;html=1;" vertex="1" parent="1">
          <mxGeometry x="1460" y="560" width="120" height="60" as="geometry" />
        </mxCell>
        <mxCell id="NspOQwVpDuBAVGisOvOU-35" value="accès chat textuel" style="rounded=0;whiteSpace=wrap;html=1;" vertex="1" parent="1">
          <mxGeometry x="1260" y="480" width="120" height="60" as="geometry" />
        </mxCell>
        <mxCell id="NspOQwVpDuBAVGisOvOU-38" value="" style="endArrow=none;html=1;rounded=0;" edge="1" parent="1" source="NspOQwVpDuBAVGisOvOU-31" target="NspOQwVpDuBAVGisOvOU-53">
          <mxGeometry width="50" height="50" relative="1" as="geometry">
            <mxPoint x="1750" y="642.5" as="sourcePoint" />
            <mxPoint x="1790" y="634.1666666666665" as="targetPoint" />
          </mxGeometry>
        </mxCell>
        <mxCell id="NspOQwVpDuBAVGisOvOU-42" value="Recherche de Profils MJ" style="rounded=0;whiteSpace=wrap;html=1;" vertex="1" parent="1">
          <mxGeometry x="1460" y="630" width="120" height="60" as="geometry" />
        </mxCell>
        <mxCell id="NspOQwVpDuBAVGisOvOU-45" value="Organisation Date-lieu" style="rounded=0;whiteSpace=wrap;html=1;" vertex="1" parent="1">
          <mxGeometry x="1330" y="300" width="120" height="60" as="geometry" />
        </mxCell>
        <mxCell id="NspOQwVpDuBAVGisOvOU-51" value="V1" style="text;html=1;align=center;verticalAlign=middle;resizable=0;points=[];autosize=1;strokeColor=none;fillColor=none;fontSize=20;" vertex="1" parent="1">
          <mxGeometry x="80" y="-40" width="50" height="40" as="geometry" />
        </mxCell>
        <mxCell id="NspOQwVpDuBAVGisOvOU-52" value="V2" style="text;html=1;align=center;verticalAlign=middle;resizable=0;points=[];autosize=1;strokeColor=none;fillColor=none;fontSize=20;" vertex="1" parent="1">
          <mxGeometry x="1130" y="-40" width="50" height="40" as="geometry" />
        </mxCell>
        <mxCell id="NspOQwVpDuBAVGisOvOU-53" value="" style="shape=actor;whiteSpace=wrap;html=1;" vertex="1" parent="1">
          <mxGeometry x="1800" y="740" width="40" height="60" as="geometry" />
        </mxCell>
        <mxCell id="NspOQwVpDuBAVGisOvOU-54" value="Utilisateur&lt;br&gt;anonyme" style="text;html=1;align=center;verticalAlign=middle;resizable=0;points=[];autosize=1;strokeColor=none;fillColor=none;" vertex="1" parent="1">
          <mxGeometry x="1780" y="803" width="80" height="40" as="geometry" />
        </mxCell>
        <mxCell id="NspOQwVpDuBAVGisOvOU-55" value="S&#39;inscrit" style="rounded=0;whiteSpace=wrap;html=1;" vertex="1" parent="1">
          <mxGeometry x="1610" y="800" width="120" height="60" as="geometry" />
        </mxCell>
        <mxCell id="NspOQwVpDuBAVGisOvOU-59" value="" style="endArrow=none;html=1;rounded=0;" edge="1" parent="1" source="NspOQwVpDuBAVGisOvOU-55" target="NspOQwVpDuBAVGisOvOU-53">
          <mxGeometry width="50" height="50" relative="1" as="geometry">
            <mxPoint x="1760" y="653" as="sourcePoint" />
            <mxPoint x="1800" y="644" as="targetPoint" />
          </mxGeometry>
        </mxCell>
        <mxCell id="NspOQwVpDuBAVGisOvOU-66" value="Connexion sur table" style="rounded=0;whiteSpace=wrap;html=1;" vertex="1" parent="1">
          <mxGeometry x="1460" y="480" width="120" height="60" as="geometry" />
        </mxCell>
        <mxCell id="NspOQwVpDuBAVGisOvOU-70" value="activation MJ / Pas MJ" style="rounded=0;whiteSpace=wrap;html=1;" vertex="1" parent="1">
          <mxGeometry x="1635" y="190" width="120" height="60" as="geometry" />
        </mxCell>
        <mxCell id="NspOQwVpDuBAVGisOvOU-71" value="Création profil" style="rounded=0;whiteSpace=wrap;html=1;" vertex="1" parent="1">
          <mxGeometry x="1635" y="290" width="120" height="60" as="geometry" />
        </mxCell>
        <mxCell id="NspOQwVpDuBAVGisOvOU-73" value="" style="endArrow=none;dashed=1;html=1;dashPattern=1 3;strokeWidth=2;rounded=0;" edge="1" parent="1" source="NspOQwVpDuBAVGisOvOU-71" target="NspOQwVpDuBAVGisOvOU-70">
          <mxGeometry width="50" height="50" relative="1" as="geometry">
            <mxPoint x="1665" y="670" as="sourcePoint" />
            <mxPoint x="1575" y="495" as="targetPoint" />
          </mxGeometry>
        </mxCell>
        <mxCell id="NspOQwVpDuBAVGisOvOU-75" value="Envoie message" style="rounded=0;whiteSpace=wrap;html=1;" vertex="1" parent="1">
          <mxGeometry x="1260" y="590" width="120" height="60" as="geometry" />
        </mxCell>
        <mxCell id="NspOQwVpDuBAVGisOvOU-76" value="Consultation messages privés" style="rounded=0;whiteSpace=wrap;html=1;" vertex="1" parent="1">
          <mxGeometry x="1590" y="400" width="120" height="60" as="geometry" />
        </mxCell>
        <mxCell id="NspOQwVpDuBAVGisOvOU-78" value="" style="endArrow=none;dashed=1;html=1;rounded=0;" edge="1" parent="1" source="NspOQwVpDuBAVGisOvOU-75" target="NspOQwVpDuBAVGisOvOU-42">
          <mxGeometry width="50" height="50" relative="1" as="geometry">
            <mxPoint x="1460" y="718" as="sourcePoint" />
            <mxPoint x="1540" y="702" as="targetPoint" />
          </mxGeometry>
        </mxCell>
        <mxCell id="NspOQwVpDuBAVGisOvOU-83" value="" style="endArrow=none;dashed=1;html=1;rounded=0;" edge="1" parent="1" source="NspOQwVpDuBAVGisOvOU-35" target="NspOQwVpDuBAVGisOvOU-66">
          <mxGeometry width="50" height="50" relative="1" as="geometry">
            <mxPoint x="1210" y="610" as="sourcePoint" />
            <mxPoint x="1320" y="565" as="targetPoint" />
          </mxGeometry>
        </mxCell>
        <mxCell id="NspOQwVpDuBAVGisOvOU-85" value="" style="shape=actor;whiteSpace=wrap;html=1;" vertex="1" parent="1">
          <mxGeometry x="1370" y="60" width="40" height="60" as="geometry" />
        </mxCell>
        <mxCell id="NspOQwVpDuBAVGisOvOU-86" value="MJ" style="text;html=1;align=center;verticalAlign=middle;resizable=0;points=[];autosize=1;strokeColor=none;fillColor=none;" vertex="1" parent="1">
          <mxGeometry x="1370" y="120" width="40" height="30" as="geometry" />
        </mxCell>
        <mxCell id="NspOQwVpDuBAVGisOvOU-87" value="Création de table" style="rounded=0;whiteSpace=wrap;html=1;" vertex="1" parent="1">
          <mxGeometry x="1260" y="190" width="120" height="60" as="geometry" />
        </mxCell>
        <mxCell id="NspOQwVpDuBAVGisOvOU-89" value="Connexion à la table" style="rounded=0;whiteSpace=wrap;html=1;" vertex="1" parent="1">
          <mxGeometry x="1420" y="190" width="120" height="60" as="geometry" />
        </mxCell>
        <mxCell id="NspOQwVpDuBAVGisOvOU-90" value="" style="shape=actor;whiteSpace=wrap;html=1;" vertex="1" parent="1">
          <mxGeometry x="1800" y="470" width="40" height="60" as="geometry" />
        </mxCell>
        <mxCell id="NspOQwVpDuBAVGisOvOU-91" value="Utilisateur connecté" style="text;html=1;align=center;verticalAlign=middle;resizable=0;points=[];autosize=1;strokeColor=none;fillColor=none;" vertex="1" parent="1">
          <mxGeometry x="1755" y="530" width="130" height="30" as="geometry" />
        </mxCell>
        <mxCell id="NspOQwVpDuBAVGisOvOU-92" value="" style="endArrow=none;html=1;rounded=0;" edge="1" parent="1" source="NspOQwVpDuBAVGisOvOU-66" target="NspOQwVpDuBAVGisOvOU-90">
          <mxGeometry width="50" height="50" relative="1" as="geometry">
            <mxPoint x="1260" y="580" as="sourcePoint" />
            <mxPoint x="1340" y="580" as="targetPoint" />
          </mxGeometry>
        </mxCell>
        <mxCell id="NspOQwVpDuBAVGisOvOU-93" value="" style="endArrow=none;html=1;rounded=0;" edge="1" parent="1" source="NspOQwVpDuBAVGisOvOU-76" target="NspOQwVpDuBAVGisOvOU-90">
          <mxGeometry width="50" height="50" relative="1" as="geometry">
            <mxPoint x="1460" y="564" as="sourcePoint" />
            <mxPoint x="1720" y="495" as="targetPoint" />
          </mxGeometry>
        </mxCell>
        <mxCell id="NspOQwVpDuBAVGisOvOU-94" value="" style="endArrow=none;html=1;rounded=0;" edge="1" parent="1" source="NspOQwVpDuBAVGisOvOU-71" target="NspOQwVpDuBAVGisOvOU-90">
          <mxGeometry width="50" height="50" relative="1" as="geometry">
            <mxPoint x="1470" y="574" as="sourcePoint" />
            <mxPoint x="1730" y="505" as="targetPoint" />
          </mxGeometry>
        </mxCell>
        <mxCell id="NspOQwVpDuBAVGisOvOU-95" value="" style="endArrow=none;html=1;rounded=0;" edge="1" parent="1" source="NspOQwVpDuBAVGisOvOU-42" target="NspOQwVpDuBAVGisOvOU-90">
          <mxGeometry width="50" height="50" relative="1" as="geometry">
            <mxPoint x="1480" y="584" as="sourcePoint" />
            <mxPoint x="1740" y="515" as="targetPoint" />
          </mxGeometry>
        </mxCell>
        <mxCell id="NspOQwVpDuBAVGisOvOU-96" value="" style="endArrow=none;dashed=1;html=1;rounded=0;" edge="1" parent="1" source="NspOQwVpDuBAVGisOvOU-75" target="NspOQwVpDuBAVGisOvOU-33">
          <mxGeometry width="50" height="50" relative="1" as="geometry">
            <mxPoint x="1260" y="702" as="sourcePoint" />
            <mxPoint x="1340" y="718" as="targetPoint" />
          </mxGeometry>
        </mxCell>
        <mxCell id="NspOQwVpDuBAVGisOvOU-97" value="" style="endArrow=none;html=1;rounded=0;" edge="1" parent="1" source="NspOQwVpDuBAVGisOvOU-33" target="NspOQwVpDuBAVGisOvOU-90">
          <mxGeometry width="50" height="50" relative="1" as="geometry">
            <mxPoint x="1270" y="712" as="sourcePoint" />
            <mxPoint x="1350" y="728" as="targetPoint" />
          </mxGeometry>
        </mxCell>
        <mxCell id="NspOQwVpDuBAVGisOvOU-98" value="" style="endArrow=none;html=1;strokeWidth=1;rounded=0;" edge="1" parent="1" source="NspOQwVpDuBAVGisOvOU-87" target="NspOQwVpDuBAVGisOvOU-85">
          <mxGeometry width="50" height="50" relative="1" as="geometry">
            <mxPoint x="1189" y="360" as="sourcePoint" />
            <mxPoint x="1351" y="260" as="targetPoint" />
          </mxGeometry>
        </mxCell>
        <mxCell id="NspOQwVpDuBAVGisOvOU-99" value="" style="endArrow=none;dashed=1;html=1;dashPattern=1 3;strokeWidth=2;rounded=0;" edge="1" parent="1" source="NspOQwVpDuBAVGisOvOU-89" target="NspOQwVpDuBAVGisOvOU-87">
          <mxGeometry width="50" height="50" relative="1" as="geometry">
            <mxPoint x="1400" y="200" as="sourcePoint" />
            <mxPoint x="1400" y="130" as="targetPoint" />
          </mxGeometry>
        </mxCell>
        <mxCell id="NspOQwVpDuBAVGisOvOU-100" value="Rédaction résumé" style="rounded=0;whiteSpace=wrap;html=1;" vertex="1" parent="1">
          <mxGeometry x="1460" y="300" width="120" height="60" as="geometry" />
        </mxCell>
        <mxCell id="NspOQwVpDuBAVGisOvOU-101" value="" style="endArrow=none;dashed=1;html=1;dashPattern=1 3;strokeWidth=2;rounded=0;" edge="1" parent="1" source="NspOQwVpDuBAVGisOvOU-45" target="NspOQwVpDuBAVGisOvOU-89">
          <mxGeometry width="50" height="50" relative="1" as="geometry">
            <mxPoint x="1260" y="230" as="sourcePoint" />
            <mxPoint x="1340" y="230" as="targetPoint" />
          </mxGeometry>
        </mxCell>
        <mxCell id="NspOQwVpDuBAVGisOvOU-102" value="" style="endArrow=none;dashed=1;html=1;dashPattern=1 3;strokeWidth=2;rounded=0;" edge="1" parent="1" source="NspOQwVpDuBAVGisOvOU-100" target="NspOQwVpDuBAVGisOvOU-89">
          <mxGeometry width="50" height="50" relative="1" as="geometry">
            <mxPoint x="1270" y="240" as="sourcePoint" />
            <mxPoint x="1350" y="240" as="targetPoint" />
          </mxGeometry>
        </mxCell>
        <mxCell id="NspOQwVpDuBAVGisOvOU-103" value="Recherche de table" style="rounded=0;whiteSpace=wrap;html=1;" vertex="1" parent="1">
          <mxGeometry x="1460" y="710" width="120" height="60" as="geometry" />
        </mxCell>
        <mxCell id="NspOQwVpDuBAVGisOvOU-104" value="Demande à rejoindre" style="rounded=0;whiteSpace=wrap;html=1;" vertex="1" parent="1">
          <mxGeometry x="1260" y="710" width="120" height="60" as="geometry" />
        </mxCell>
        <mxCell id="NspOQwVpDuBAVGisOvOU-105" value="" style="endArrow=none;dashed=1;html=1;rounded=0;" edge="1" parent="1" source="NspOQwVpDuBAVGisOvOU-104" target="NspOQwVpDuBAVGisOvOU-103">
          <mxGeometry width="50" height="50" relative="1" as="geometry">
            <mxPoint x="1260" y="702" as="sourcePoint" />
            <mxPoint x="1340" y="718" as="targetPoint" />
          </mxGeometry>
        </mxCell>
        <mxCell id="NspOQwVpDuBAVGisOvOU-106" value="" style="endArrow=none;html=1;rounded=0;" edge="1" parent="1" source="NspOQwVpDuBAVGisOvOU-103" target="NspOQwVpDuBAVGisOvOU-90">
          <mxGeometry width="50" height="50" relative="1" as="geometry">
            <mxPoint x="1459" y="700" as="sourcePoint" />
            <mxPoint x="1810" y="520" as="targetPoint" />
          </mxGeometry>
        </mxCell>
        <mxCell id="NspOQwVpDuBAVGisOvOU-107" value="Recherche de Profils joueurs" style="rounded=0;whiteSpace=wrap;html=1;" vertex="1" parent="1">
          <mxGeometry x="1110" y="190" width="120" height="60" as="geometry" />
        </mxCell>
        <mxCell id="NspOQwVpDuBAVGisOvOU-108" value="Envoie message" style="rounded=0;whiteSpace=wrap;html=1;" vertex="1" parent="1">
          <mxGeometry x="1050" y="300" width="120" height="60" as="geometry" />
        </mxCell>
        <mxCell id="NspOQwVpDuBAVGisOvOU-109" value="Invité à une table" style="rounded=0;whiteSpace=wrap;html=1;" vertex="1" parent="1">
          <mxGeometry x="1181" y="300" width="120" height="60" as="geometry" />
        </mxCell>
        <mxCell id="NspOQwVpDuBAVGisOvOU-110" value="" style="endArrow=none;dashed=1;html=1;dashPattern=1 3;strokeWidth=2;rounded=0;" edge="1" parent="1" source="NspOQwVpDuBAVGisOvOU-108" target="NspOQwVpDuBAVGisOvOU-107">
          <mxGeometry width="50" height="50" relative="1" as="geometry">
            <mxPoint x="1425" y="310" as="sourcePoint" />
            <mxPoint x="1465" y="260" as="targetPoint" />
          </mxGeometry>
        </mxCell>
        <mxCell id="NspOQwVpDuBAVGisOvOU-111" value="" style="endArrow=none;dashed=1;html=1;dashPattern=1 3;strokeWidth=2;rounded=0;" edge="1" parent="1" source="NspOQwVpDuBAVGisOvOU-109" target="NspOQwVpDuBAVGisOvOU-107">
          <mxGeometry width="50" height="50" relative="1" as="geometry">
            <mxPoint x="1142" y="310" as="sourcePoint" />
            <mxPoint x="1178" y="260" as="targetPoint" />
          </mxGeometry>
        </mxCell>
        <mxCell id="NspOQwVpDuBAVGisOvOU-112" value="" style="endArrow=none;html=1;strokeWidth=1;rounded=0;" edge="1" parent="1" source="NspOQwVpDuBAVGisOvOU-89" target="NspOQwVpDuBAVGisOvOU-85">
          <mxGeometry width="50" height="50" relative="1" as="geometry">
            <mxPoint x="1354" y="200" as="sourcePoint" />
            <mxPoint x="1386" y="130" as="targetPoint" />
          </mxGeometry>
        </mxCell>
        <mxCell id="NspOQwVpDuBAVGisOvOU-113" value="" style="endArrow=none;html=1;strokeWidth=1;rounded=0;" edge="1" parent="1" source="NspOQwVpDuBAVGisOvOU-107" target="NspOQwVpDuBAVGisOvOU-85">
          <mxGeometry width="50" height="50" relative="1" as="geometry">
            <mxPoint x="1364" y="210" as="sourcePoint" />
            <mxPoint x="1396" y="140" as="targetPoint" />
          </mxGeometry>
        </mxCell>
      </root>
    </mxGraphModel>
  </diagram>
</mxfile>
